<svg width="133" height="130" viewBox="0 0 133 130" fill="none" xmlns="http://www.w3.org/2000/svg">
<path d="M88.5462 0.0100466C90.246 0.111944 91.5268 0.711572 92.8036 1.22106C100.86 4.43475 107.742 9.14947 112.313 16.7487C115.998 22.8782 117.334 29.5839 117.15 36.6579C116.971 42.0373 116.098 47.371 114.553 52.5265C114.443 52.8988 114.553 53.5925 113.946 53.5298C113.339 53.4671 113.417 52.746 113.406 52.3188C113.319 49.5754 113.723 46.832 114.028 44.1356C115.665 29.4114 110.726 17.3013 99.6305 7.61317C96.239 4.66231 92.5198 2.1112 88.5462 0.0100466Z" fill="white"/>
<path d="M43.837 0.0100457C38.8627 2.91021 34.4055 6.02984 30.5202 9.89411C21.6449 18.7357 17.4227 29.3369 18.3979 41.9017C18.6447 45.0644 18.9306 48.2272 19.1304 51.3899C19.1774 52.0758 19.3967 53.2515 18.7191 53.3495C17.7909 53.4984 18.0219 52.2717 17.8496 51.6721C15.5348 43.5438 14.4969 35.2862 16.2829 26.9228C18.6643 15.714 25.6047 8.1109 35.6197 3.01602C37.8875 1.8638 40.2845 1.05646 42.6228 0.0884284C43.0224 0.00977144 43.4305 -0.0165769 43.837 0.0100457Z" fill="white"/>
<path d="M8.30066 34.4318C7.65832 30.0424 10.0318 26.8718 12.609 23.7914C12.844 23.5131 13.0712 23.0977 13.5569 23.2544C14.0426 23.4112 14.0034 23.8345 14.1091 24.2107C14.4734 25.5001 14.0112 26.7268 13.8702 27.9809C12.985 35.9642 13.1417 43.8848 15.527 51.6329C15.9813 53.1183 16.7999 54.5056 16.7412 56.1164C16.7138 56.861 17.1328 57.9506 16.2829 58.2288C15.433 58.5071 15.0648 57.4136 14.6888 56.7827C12.9979 53.9816 11.7618 50.9299 11.0267 47.7412C10.0749 43.5595 8.78242 39.4561 8.34766 35.1647C8.32416 34.9217 8.31242 34.6787 8.29675 34.4318" fill="white"/>
<path d="M124.263 33.1463C124.263 38.01 122.833 41.8076 122.077 45.7228C121.365 49.5208 120.017 53.1711 118.09 56.5201C117.659 57.2647 117.244 58.5776 116.253 58.1896C115.395 57.8604 115.654 56.5475 115.767 55.6383C116.049 53.3416 117.256 51.3272 117.769 49.0815C119.5 41.498 119.606 33.8792 118.47 26.2173C118.33 25.4952 118.351 24.7511 118.533 24.0383C118.83 23.0154 119.355 23.0036 119.943 23.7522C122.293 26.7542 124.842 29.6896 124.251 33.1581" fill="white"/>
<path d="M111.988 54.0001C112.222 54.9194 112.195 55.8858 111.909 56.7905C110.01 64.1467 105.643 69.7903 99.701 74.3169C98.8863 74.9361 98.056 75.5357 97.2452 76.1628C95.1804 77.6799 93.778 79.9335 93.3285 82.4569C92.4877 87.143 90.403 91.5166 87.2928 95.1197C86.439 96.0917 85.4158 96.9004 84.2731 97.5064C84.6099 94.9159 84.9585 92.4978 83.6777 90.1189C85.6361 90.0561 87.5239 89.8759 88.9261 88.3474C90.2225 86.9326 90.8649 85.2121 91.3075 83.3936C91.6139 81.9615 92.0197 80.5524 92.5216 79.1766C93.2732 77.2011 94.6183 75.5074 96.3718 74.3287C103.547 69.5395 108.576 63.1082 111.291 54.878C111.392 54.5723 111.412 54.1921 111.992 54.004" fill="white"/>
<path d="M48.2198 97.4123C46.0891 96.2915 44.6947 94.618 43.4923 92.8113C41.3152 89.5581 39.8325 85.8904 39.1369 82.0376C38.7653 79.9008 37.6051 77.9816 35.886 76.6605C32.408 73.9171 28.8555 71.2521 26.0943 67.7014C23.4514 64.3089 21.562 60.3915 20.5521 56.2105C20.3289 55.313 20.4268 54.8505 20.885 53.9374C21.7735 56.3656 22.7893 58.7452 23.9283 61.0663C26.5525 66.2434 30.4183 70.3272 35.1575 73.5644C38.1303 75.5945 40.0887 78.1733 40.7858 81.7358C41.09 83.2714 41.567 84.7676 42.2076 86.1958C43.2847 88.5943 45.0707 90.0326 47.7341 90.0287C48.9796 90.0287 48.7877 90.354 48.4352 91.2044C47.6518 93.164 48.0435 95.2098 48.2198 97.3967" fill="white"/>
<path d="M131.497 50.7158C131.309 53.8511 130.666 56.524 128.728 58.9107C125.739 62.5908 122.77 66.267 119.249 69.4493C118.709 69.9353 118.074 70.9111 117.291 70.3311C116.649 69.8373 117.158 68.8536 117.459 68.1482C118.18 66.4629 119.527 65.2049 120.569 63.7352C123.836 59.1224 126.233 54.051 128.489 48.9052C128.826 48.1214 128.959 46.9456 130.055 47.0514C131.152 47.1573 131.082 48.3526 131.313 49.1678C131.42 49.6771 131.477 50.1955 131.485 50.7158" fill="white"/>
<path d="M128.857 41.1845C128.939 44.602 127.431 47.561 126.115 50.5395C124.368 54.6231 122.237 58.5311 119.751 62.2107C119.334 62.8113 118.862 63.3715 118.341 63.8842C118.062 64.1585 117.757 64.6366 117.232 64.3584C116.707 64.0801 116.84 63.602 116.821 63.1826C116.847 62.2464 117.139 61.337 117.663 60.5607C121.635 53.9531 123.828 46.687 125.579 39.2524C125.802 38.3079 125.951 37.0577 127.083 36.9832C128.379 36.9009 128.285 38.3196 128.595 39.1701C128.758 39.8309 128.847 40.5079 128.861 41.1884" fill="white"/>
<path d="M15.7698 63.1787C15.7307 63.6137 15.7698 64.1624 15.3272 64.3544C14.7867 64.57 14.4147 64.0683 14.1091 63.7274C12.2526 61.6933 10.9523 59.2831 9.6441 56.8885C7.47425 52.9066 5.42189 48.8542 4.19988 44.4687C3.62412 42.3955 3.51445 40.2243 4.31346 38.1158C4.52888 37.5436 4.75213 36.9401 5.41014 36.9126C6.06815 36.8852 6.42848 37.4613 6.58515 38.0492C7.12174 39.9735 7.61916 41.9056 8.15184 43.8338C9.68719 49.595 11.6769 55.1719 14.7593 60.3177C15.3213 61.1811 15.6704 62.1657 15.7777 63.1905" fill="white"/>
<path d="M1.14484 50.9079C1.12525 49.7674 1.20751 48.6465 1.79501 47.6354C2.26502 46.8163 2.85644 46.7497 3.33428 47.5766C3.82701 48.4665 4.27154 49.3823 4.66596 50.32C7.16482 55.944 9.88693 61.4386 13.882 66.1964C14.4982 66.8929 14.9553 67.7154 15.2215 68.6067C15.386 69.2024 15.8521 69.9392 15.198 70.3429C14.5439 70.7465 14.023 70.0528 13.5961 69.6374C11.9236 67.9992 10.2199 66.3845 8.67275 64.6288C6.73529 62.4445 4.87877 60.1805 3.10319 57.8369C1.58351 55.8146 1.22709 53.3769 1.14484 50.9079Z" fill="white"/>
<path d="M69.9771 46.9025C68.5161 49.6969 69.4444 51.0843 72.6796 51.531C72.1078 52.1072 71.3558 52.1542 70.6664 52.3149C67.96 52.938 67.1414 53.9531 67.1414 56.6729C67.1414 57.0022 67.4077 57.5508 66.7889 57.5626C66.362 57.5626 66.3698 57.108 66.362 56.7788C66.3594 56.4841 66.3411 56.1897 66.3071 55.897C66.264 55.5286 66.0878 55.2033 65.6765 55.2425C65.3514 55.2777 65.2849 55.6069 65.23 55.9087C65.1008 56.5789 65.8528 57.7781 64.713 57.786C63.8474 57.786 64.4819 56.5906 64.3214 55.9557C64.2273 55.6069 64.2078 55.2542 63.7456 55.266C63.3539 55.266 63.3539 55.6148 63.2913 55.9009C63.2286 56.187 63.1659 56.575 63.1033 56.912C63.0288 57.3039 63.1855 57.9427 62.504 57.8408C61.9517 57.7625 62.2533 57.2138 62.2181 56.8728C62.1985 56.6847 62.3042 56.4809 62.2925 56.2928C62.2651 55.8421 62.5667 55.168 61.9008 55.0661C61.329 54.9799 61.4191 55.6657 61.2271 56.0302C60.9726 56.5083 61.2624 57.543 60.5143 57.4097C59.7662 57.2765 60.1696 56.3281 60.2323 55.7794C60.5182 53.2986 61.4308 52.3893 63.8827 51.923C65.1282 51.6878 66.3737 51.4605 67.6035 51.1391C68.5475 50.9001 68.5279 50.8491 68.1401 49.8458C68.0422 49.595 68.2185 49.399 68.3007 49.1717C68.4535 48.7602 68.9156 48.2272 68.2224 47.9333C67.5291 47.6393 67.3529 48.3252 67.114 48.7602C66.6635 49.6028 66.3306 50.5669 65.0616 50.4219C65.0303 50.3357 64.9519 50.2416 64.9676 50.175C65.1086 49.6224 65.9703 48.9993 65.183 48.5447C64.3958 48.09 64.1882 49.1129 63.9375 49.6185C63.3892 50.7159 62.7272 51.2136 61.5326 50.4023C61.6423 50.222 61.7324 50.0535 61.8421 49.8968C62.128 49.5048 62.5314 49.0385 61.9478 48.6466C61.4426 48.3056 61.1919 48.8386 60.9256 49.1717C60.4908 49.7243 60.0756 50.2142 59.2531 49.7008C58.8615 49.4578 58.5442 49.352 58.9398 48.8699C59.0024 48.8094 59.0496 48.7348 59.0777 48.6524C59.1058 48.57 59.1138 48.482 59.1012 48.3959C59.0885 48.3097 59.0556 48.2278 59.0051 48.1569C58.9545 48.086 58.8878 48.0281 58.8105 47.9881C58.6845 47.9097 58.5334 47.8823 58.3879 47.9114C58.2423 47.9405 58.1134 48.024 58.0272 48.1449C57.4945 48.8268 57.1616 48.4114 56.7582 47.9881C55.8221 46.9892 55.2855 45.6809 55.2503 44.312C58.9006 45.5779 62.4296 45.4877 66.033 44.7666C67.6976 44.4413 69.4796 44.5393 71.0189 45.715C68.9391 45.7621 66.879 45.8405 64.8775 46.4087C62.3552 47.1259 59.9581 46.5537 57.6042 45.6249C57.1019 45.4244 56.575 45.2926 56.0375 45.233C58.5364 47.702 61.4856 48.576 64.9284 47.8353C66.5343 47.4865 68.1597 47.2435 70.0202 46.9143" fill="white"/>
<path d="M132.613 60.5921C132.3 63.261 131.438 65.636 129.225 67.431C125.924 70.0874 122.459 72.5326 118.85 74.7519C118.235 75.1438 117.424 76.01 116.809 75.2967C116.194 74.5834 117.06 73.78 117.526 73.1333C117.878 72.6633 118.293 72.2439 118.76 71.887C122.798 68.6733 126.115 64.7777 129.284 60.741C129.576 60.3491 129.895 59.9785 130.24 59.6319C130.713 59.1851 131.109 58.4052 131.924 58.7579C132.738 59.1106 132.464 59.9337 132.613 60.5921Z" fill="white"/>
<path d="M0.819755 58.7148C1.89293 58.8755 2.38644 59.6593 2.91128 60.3295C5.68822 63.8567 8.55917 67.2977 11.9197 70.3037C12.8636 71.1542 13.8271 71.9811 14.7672 72.8355C15.0246 73.058 15.2418 73.3231 15.4095 73.6193C15.6876 74.1601 16.3143 74.795 15.8012 75.3359C15.2881 75.8767 14.6066 75.2732 14.1052 74.9675C10.6194 72.8237 7.32541 70.4017 4.04321 67.9561C1.69318 66.2043 0.518168 63.8763 0.0599135 61.0898C-0.0889214 60.1688 -0.00667053 59.2713 0.843255 58.707" fill="white"/>
<path d="M131.877 70.1352C131.673 71.9615 130.553 73.5723 128.743 74.6148C125.259 76.5468 121.619 78.1855 117.863 79.5137C117.271 79.7332 116.461 80.2113 116.026 79.4314C115.591 78.6515 116.237 77.997 116.887 77.6521C121.462 75.2301 125.618 72.1927 129.695 69.03C130.185 68.6381 130.757 68.2462 131.43 68.5323C131.975 68.7674 131.904 69.3161 131.865 70.1313" fill="white"/>
<path d="M0.670918 69.8569C0.639584 68.5361 1.40726 68.0815 2.48827 68.8027C3.85912 69.7158 5.13596 70.7622 6.45198 71.7773C9.16624 73.8358 12.0367 75.6795 15.0374 77.2915C15.3849 77.4735 15.7164 77.6845 16.0283 77.9225C16.514 78.3144 16.9057 78.7965 16.5845 79.4235C16.2633 80.0506 15.6171 79.8154 15.1432 79.6273C11.8959 78.4594 8.71816 77.1064 5.62555 75.5749C3.49486 74.5403 1.65401 73.2979 0.917671 70.8916C0.804086 70.4996 0.733585 70.1352 0.670918 69.8569Z" fill="white"/>
<path d="M115.983 84.0599C115.258 84.0285 114.718 84.1774 114.541 83.6483C114.389 83.1859 114.769 82.794 115.058 82.4922C115.759 81.7789 116.723 81.4811 117.632 81.191C120.818 80.1303 123.919 78.8307 126.91 77.3033C127.886 76.8212 129.166 76.1667 129.977 77.3229C130.729 78.4006 129.84 79.451 129.115 80.3053C128.476 81.0503 127.636 81.5947 126.695 81.873C123.099 82.9586 119.39 83.4994 115.983 84.0559" fill="white"/>
<path d="M16.4474 84.0756C12.8323 83.3662 9.00567 82.9508 5.36705 81.6261C4.75388 81.3848 4.19531 81.0229 3.72438 80.5617C3.25346 80.1006 2.87974 79.5497 2.62535 78.9415C2.3786 78.4007 2.0966 77.8363 2.53135 77.2955C2.74607 77.0223 3.04801 76.8312 3.38667 76.7542C3.72532 76.6771 4.08015 76.7188 4.39179 76.8722C5.95847 77.5149 7.52515 78.1733 9.04875 78.9023C11.1117 79.8658 13.2305 80.7047 15.3938 81.4145C16.0265 81.6499 16.633 81.9507 17.2033 82.312C17.6694 82.5863 18.159 82.9978 17.9867 83.5896C17.7908 84.2833 17.1015 83.9815 16.4435 84.0756" fill="white"/>
<path d="M13.5451 88.1005C12.0294 88.1005 10.5136 88.1593 9.00176 88.1005C8.08842 88.1016 7.19454 87.8365 6.4294 87.3374C5.66425 86.8384 5.061 86.1271 4.69338 85.2905C4.09804 84.0167 4.51713 83.3975 5.91539 83.5033C6.87356 83.6403 7.82299 83.8326 8.75892 84.0795L17.7673 85.8235C18.0067 85.8571 18.2401 85.9244 18.4606 86.0233C19.0246 86.3173 19.6983 86.6465 19.5103 87.4029C19.3497 88.0417 18.6956 88.1632 18.0768 88.1632H13.5451V88.1005Z" fill="white"/>
<path d="M119.14 88.1632H114.596C113.938 88.1632 113.194 88.0966 113.061 87.3519C112.928 86.6073 113.601 86.0782 114.267 85.9136C115.681 85.5687 117.126 85.3767 118.552 85.0867C120.933 84.5968 123.307 84.056 125.692 83.5857C126.432 83.4407 127.376 83.1075 127.874 83.8482C128.438 84.6908 127.835 85.5256 127.298 86.1997C126.843 86.8052 126.25 87.2937 125.569 87.6249C124.888 87.9561 124.138 88.1205 123.381 88.1044C121.964 88.1044 120.546 88.1044 119.128 88.1044L119.14 88.1632Z" fill="white"/>
<path d="M118.517 89.5075C120.025 89.5075 121.537 89.5075 123.048 89.5075C123.93 89.5075 124.968 89.5075 125.199 90.5656C125.402 91.4749 124.564 91.9373 123.863 92.3919C122.963 92.9918 121.876 93.2426 120.804 93.0974C118.342 92.8074 115.88 92.5134 113.417 92.2156C113.128 92.1848 112.844 92.1177 112.571 92.0157C111.964 91.7806 111.036 91.7374 111.095 90.8831C111.153 90.0287 112.031 89.6329 112.822 89.6054C114.718 89.5349 116.617 89.5819 118.517 89.5819V89.5075Z" fill="white"/>
<path d="M65.5394 66.6354C64.8658 67.4976 65.4807 68.3716 65.418 69.2142C65.3828 69.6649 65.6452 70.3507 64.9872 70.4409C64.3879 70.5271 64.5093 69.8177 64.3683 69.4454C64.0472 68.5989 64.3997 67.0469 63.3578 67.0704C62.6176 67.0704 62.9975 68.6694 62.8604 69.5512C62.8017 69.9432 62.9505 70.5584 62.3003 70.5349C61.7677 70.5349 61.9087 69.9549 61.8303 69.5944C61.752 69.1123 61.7285 68.6224 61.658 68.1403C61.5875 67.6583 61.6306 66.996 61.0352 66.9646C60.2832 66.9333 60.4125 67.7053 60.3146 68.1913C60.2166 68.6773 60.1853 69.2573 60.1265 69.7903C60.0756 70.241 59.868 70.5271 59.3785 70.5036C58.8889 70.4801 58.9241 70.0686 58.928 69.7433C58.928 68.9124 58.9672 68.0816 58.9868 67.2507C59.0377 65.2637 59.868 64.6523 61.8303 65.2049C63.1542 65.5772 64.4388 64.9815 65.7744 65.0913C66.4528 65.1 67.1298 65.029 67.7915 64.8796C69.2877 64.6092 69.5972 65.491 69.9457 66.5061C70.2003 67.2429 70.4784 67.9718 70.6742 68.7204C70.7761 69.1123 71.0659 69.6727 70.4706 69.8608C69.8752 70.049 69.6598 69.516 69.4836 69.0378C69.2133 68.3128 68.9391 67.5838 68.6336 66.8706C68.524 66.6158 68.3595 66.2984 68.0031 66.3728C67.6466 66.4473 67.6584 66.8118 67.678 67.09C67.721 67.721 67.7876 68.352 67.8816 68.979C67.956 69.4376 68.3595 70.0451 67.6701 70.2175C66.8868 70.4174 66.969 69.6296 66.8045 69.1515C66.499 68.2697 66.5539 67.1919 65.5394 66.6276" fill="white"/>
<path d="M10.9993 93.1444C9.76355 93.073 8.60314 92.5268 7.76016 91.6199C7.00815 90.8596 7.2314 90.1071 8.24583 89.7034C8.33393 89.66 8.42981 89.6347 8.52783 89.629C12.421 89.6917 16.3182 89.4369 20.2035 89.7622C20.8537 89.8171 21.5117 90.1894 21.5078 90.9144C21.5039 91.6395 20.8067 91.7845 20.2349 91.9295C17.1955 92.6898 14.0661 92.7721 10.9993 93.1444Z" fill="white"/>
<path d="M68.3595 90.2325C68.43 92.4272 67.0121 93.4619 65.0499 92.7839C64.6924 92.6851 64.3846 92.4564 64.1868 92.1425C63.989 91.8286 63.9155 91.4522 63.9806 91.0869C64.1999 88.708 64.3331 86.3251 64.3527 83.9344C64.3527 82.7587 65.0538 82.1316 66.2131 82.1512C67.3725 82.1708 67.7798 82.892 67.8307 83.9736C67.9717 86.1096 68.1871 88.2416 68.3595 90.2443" fill="white"/>
<path d="M65.7118 100.144C65.7118 101.073 65.6491 102.01 65.7118 102.931C65.8136 104.106 65.1556 104.498 64.1843 104.604C63.0719 104.718 61.8342 104.675 61.5992 103.33C61.2398 100.914 61.1674 98.4627 61.3838 96.0289C61.4465 95.0178 62.3943 94.7865 63.2677 94.8532C64.3292 94.9276 65.3671 95.1667 65.4924 96.507C65.6021 97.7181 65.6374 98.9408 65.7118 100.156" fill="white"/>
<path d="M111.455 93.4384C114.302 93.8303 117.295 94.2222 120.275 94.7082C121.059 94.8375 122.054 95.1902 122.046 96.17C122.038 97.1498 121.11 97.3692 120.264 97.5848C118.738 97.9389 117.145 97.878 115.65 97.4084C113.691 96.8637 111.71 96.3307 109.775 95.7232C109.215 95.5469 108.384 95.3548 108.529 94.5475C108.651 93.8655 109.379 93.6539 110.01 93.5285C110.494 93.4665 110.982 93.4403 111.471 93.4501" fill="white"/>
<path d="M21.0613 93.454C22.0405 93.501 22.8395 93.3599 23.5288 93.8694C24.2182 94.3789 24.4023 95.1432 23.5053 95.4175C19.8667 96.5227 16.3417 98.3098 12.3388 97.5691C11.4693 97.4084 10.6429 97.1458 10.5763 96.1582C10.5097 95.1706 11.4223 94.861 12.143 94.7395C15.1706 94.2496 18.2139 93.8577 21.0456 93.454" fill="white"/>
<path d="M107.883 96.8441L112.657 98.1452C114.114 98.5372 115.583 98.9095 117.025 99.3563C117.808 99.5993 118.846 99.9559 118.681 100.896C118.505 101.939 117.483 102.417 116.414 102.339C114.694 102.217 113.116 101.496 111.498 100.979C110.065 100.52 108.69 99.901 107.284 99.368C106.587 99.1015 105.658 98.7723 105.815 98.0042C105.991 97.142 106.97 96.9264 107.883 96.8284" fill="white"/>
<path d="M24.7313 96.9852H25.1699C25.8671 96.9852 26.482 97.2595 26.6661 97.918C26.8933 98.7018 26.1609 99.0584 25.6008 99.2661C22.8591 100.269 20.1174 101.253 17.3757 102.135C16.4278 102.437 15.4173 102.574 14.4812 101.743C13.6235 100.991 13.5804 100.485 14.5674 99.8462C15.6602 99.1329 16.9174 98.9369 18.1277 98.592C20.3132 97.9689 22.5222 97.4163 24.7195 96.8402C24.7195 96.8833 24.7195 96.9264 24.7508 96.9695" fill="white"/>
<path d="M72.1822 98.2824C72.0843 99.6423 72.0177 101.026 71.8727 102.366C71.7161 103.804 70.0632 104.757 68.6924 104.29C68.0931 104.087 68.0109 103.64 68.0109 103.146C68.0109 100.994 67.9835 98.835 68.054 96.6991C68.097 95.394 69.0527 94.6376 70.3844 94.6297C71.7905 94.6297 72.0647 95.5429 72.096 96.6677C72.096 97.2046 72.096 97.7416 72.096 98.2785H72.1822" fill="white"/>
<path d="M75.1197 89.7779C75.1197 90.84 74.0739 91.8236 72.8441 91.9255C71.6143 92.0274 70.7017 91.4709 70.4941 90.2364C70.0843 87.9379 69.8577 85.6105 69.8165 83.276C69.8165 82.4922 69.9261 81.7358 70.8622 81.6221C71.7396 81.5163 72.1626 82.0572 72.3506 82.8841C72.8128 84.9338 73.7959 86.7797 74.7006 88.6531C74.8847 89.045 75.2255 89.382 75.0923 89.7779" fill="white"/>
<path d="M62.4648 85.4472C62.3297 87.4774 62.0443 89.4948 61.611 91.4827C61.3564 92.8113 60.4595 92.9524 59.4059 92.6584C58.3523 92.3645 57.2086 91.9843 57.6238 90.5147C57.9919 89.2057 58.5207 87.9398 58.9829 86.6582C59.29 85.8398 59.4965 84.987 59.5978 84.1186C59.6957 83.2172 59.9268 82.2688 61.0979 82.3276C62.269 82.3864 62.4648 83.2643 62.4648 84.2245V85.4472Z" fill="white"/>
<path d="M109.72 109.589C108.998 109.58 108.289 109.399 107.652 109.06C105.41 107.799 103.248 106.402 101.178 104.874C100.688 104.526 100.026 104.063 100.363 103.334C100.7 102.605 101.503 102.715 102.172 102.876C102.541 102.987 102.897 103.136 103.234 103.322C105.247 104.287 107.26 105.247 109.266 106.223C109.696 106.434 110.104 106.697 110.523 106.932C111.224 107.324 111.717 107.892 111.447 108.699C111.196 109.436 110.456 109.55 109.72 109.589Z" fill="white"/>
<path d="M78.0807 96.6089C78.115 97.9231 78.0073 99.2371 77.7596 100.528C77.7209 100.911 77.6048 101.283 77.4182 101.619C77.2317 101.956 76.9788 102.252 76.6746 102.488C76.0793 102.88 75.3273 103.248 74.6419 102.903C73.9564 102.558 74.3364 101.841 74.3951 101.296C74.5152 99.4987 74.5452 97.6962 74.4852 95.8957C74.4852 95.2568 74.4852 94.618 74.9082 94.0889C75.5584 93.3051 76.4083 92.7643 77.4149 93.0386C78.4802 93.3247 78.1434 94.3633 78.1982 95.1353C78.1971 95.6222 78.1591 96.1082 78.0847 96.5893" fill="white"/>
<path d="M23.0432 109.671C22.2363 109.577 21.4373 109.483 21.1396 108.723C20.7989 107.841 21.3942 107.234 22.1384 106.861C24.7783 105.539 27.4273 104.233 30.0854 102.942C30.5339 102.734 31.0405 102.689 31.5189 102.813C32.2592 103.001 32.6273 103.597 32.0751 104.079C29.4 106.47 26.4546 108.457 23.0432 109.656" fill="white"/>
<path d="M112.975 106.152C111.663 106.046 110.554 105.368 109.418 104.847C107.664 104.02 105.94 103.119 104.237 102.186C103.676 101.88 102.85 101.527 103.183 100.681C103.516 99.8344 104.358 99.9911 104.977 100.199C107.041 100.9 109.074 101.692 111.11 102.464C112.152 102.856 113.276 103.052 114.208 103.695C114.706 104.04 115.438 104.349 115.215 105.094C115.023 105.741 114.318 105.94 113.695 106.093C113.457 106.134 113.216 106.154 112.975 106.152Z" fill="white"/>
<path d="M68.6415 109.934C68.7159 110.835 68.4535 111.984 68.3986 113.148C68.3438 114.312 67.7171 114.527 66.7889 114.582C65.7784 114.641 64.7992 114.472 64.6699 113.316C64.4411 111.432 64.3468 109.535 64.3879 107.637C64.431 106.187 65.6922 106.375 66.7145 106.328C67.7367 106.281 68.5396 106.583 68.6336 107.759C68.6846 108.39 68.6336 109.025 68.6336 109.934" fill="white"/>
<path d="M19.2009 106.109C18.8388 106.096 18.4842 106.002 18.1629 105.835C17.2739 105.356 17.0114 104.788 17.8927 104.071C18.2472 103.737 18.6601 103.471 19.1108 103.287C21.6566 102.476 24.1163 101.445 26.5917 100.461C27.4886 100.105 28.7616 99.4817 29.2707 100.716C29.7172 101.794 28.4208 102.158 27.6414 102.558C25.5773 103.62 23.4975 104.647 21.4099 105.658C20.7237 105.993 19.963 106.146 19.2009 106.101" fill="white"/>
<path d="M55.5871 96.4874C55.6811 95.5155 55.1758 94.1869 56.8757 94.0732C58.3954 93.9713 59.2022 94.8571 59.2257 96.554C59.257 98.315 59.3014 100.076 59.3589 101.837C59.3902 102.687 59.778 103.797 58.4659 103.898C57.3653 103.989 56.5388 103.362 56.2803 102.17C55.9039 100.296 55.6708 98.3966 55.5832 96.4874" fill="white"/>
<path d="M98.4907 105.184C99.0351 105.145 99.513 105.478 99.9947 105.827C101.808 107.14 103.684 108.359 105.576 109.554C106.446 110.106 107.891 110.659 107.119 112.07C106.418 113.355 105.075 112.673 104.264 112.184C101.807 110.7 99.5903 108.85 97.6917 106.697C97.5424 106.566 97.4361 106.393 97.3865 106.201C97.3368 106.009 97.3463 105.806 97.4136 105.619C97.5977 105.227 97.9815 105.121 98.4907 105.164" fill="white"/>
<path d="M26.5329 112.654C26.3042 112.687 26.0706 112.65 25.864 112.546C25.6573 112.442 25.4875 112.277 25.3775 112.074C25.0133 111.564 25.2835 111.129 25.5655 110.741C25.7966 110.43 26.0835 110.164 26.4115 109.958C28.6323 108.554 30.8296 107.124 32.9485 105.568C33.5595 105.121 34.4486 104.886 34.9813 105.435C35.6706 106.14 34.8873 106.775 34.4094 107.273C32.7605 109.001 30.8296 110.408 28.9535 111.87C28.2415 112.364 27.3994 112.637 26.5329 112.654Z" fill="white"/>
<path d="M70.4706 112.035C70.6534 110.605 70.7372 109.165 70.7212 107.724C70.7331 107.349 70.8326 106.982 71.0117 106.653C71.1908 106.323 71.4447 106.041 71.7528 105.827C72.0609 105.614 72.4147 105.476 72.7859 105.424C73.157 105.372 73.5351 105.408 73.8899 105.529C74.4578 105.709 74.5048 106.113 74.4578 106.556C74.258 108.441 74.0661 110.326 73.7959 112.199C73.6549 113.179 72.8989 113.661 71.9824 113.869C70.9249 114.108 70.4157 113.54 70.4706 112.046" fill="white"/>
<path d="M50.0371 94.9315C50.2682 93.8851 49.7943 92.4781 51.4471 92.2861C52.6221 92.1489 53.3115 93.1718 53.4055 94.9511C53.5308 96.9381 53.6992 98.9173 53.8794 100.9C53.9225 101.398 54.0556 101.939 53.4877 102.174C53.0177 102.374 52.6339 101.99 52.3636 101.657C50.7734 99.6972 50.2369 97.3457 50.0136 94.9315" fill="white"/>
<path d="M101.475 115.77C100.653 115.655 99.8999 115.249 99.3524 114.625C97.7465 112.937 96.1733 111.216 94.6328 109.46C94.2097 108.982 93.8768 108.284 94.4408 107.755C95.0048 107.226 95.6903 107.555 96.1485 107.99C98.0481 109.801 100.065 111.482 102.063 113.167C102.362 113.384 102.583 113.693 102.692 114.046C102.8 114.4 102.791 114.779 102.666 115.127C102.587 115.362 102.421 115.558 102.203 115.676C101.985 115.794 101.731 115.824 101.491 115.762" fill="white"/>
<path d="M31.1429 115.777C30.1402 115.777 29.7251 115.284 29.8543 114.382C29.9757 113.758 30.3353 113.205 30.857 112.842C32.5803 111.419 34.2489 109.922 35.9487 108.464C36.2324 108.207 36.5422 107.98 36.8731 107.786C37.3156 107.539 37.8209 107.422 38.2086 107.865C38.3482 108.04 38.4181 108.262 38.4051 108.486C38.3921 108.71 38.2971 108.921 38.1381 109.08C37.5154 109.891 36.8809 110.69 36.2268 111.474C35.2165 112.725 34.0928 113.879 32.8702 114.923C32.3872 115.37 31.7889 115.673 31.1429 115.797" fill="white"/>
<path d="M59.445 61.6581C59.6135 58.6913 59.6056 58.7579 62.3042 59.0558C63.7623 59.1753 65.2272 59.1871 66.687 59.091C67.4704 59.0636 67.6505 59.483 67.7524 60.1218C67.8934 60.9879 68.144 61.8344 68.3203 62.6888C68.3791 62.971 68.4378 63.308 68.0853 63.4452C67.7328 63.5824 67.4155 63.3511 67.302 62.9984C67.1335 62.4929 67.0748 61.9442 66.8829 61.4308C66.6909 60.9174 66.6361 60.0473 65.8919 60.2276C65.3319 60.3648 65.5003 61.1251 65.5982 61.6581C65.6844 62.0888 65.742 62.5248 65.7705 62.9632C65.7705 63.2453 65.7705 63.602 65.3789 63.6568C64.901 63.7313 64.8423 63.3629 64.7953 63.0063C64.7013 62.3322 64.6268 61.6542 64.4898 60.9879C64.4232 60.6665 64.2861 60.2903 63.8709 60.2707C63.4557 60.2511 63.3931 60.6626 63.2638 60.9644C62.9936 61.6306 63.1032 62.3126 63.1032 62.9945C63.1032 63.3864 63.162 63.8959 62.6411 63.9037C62.1201 63.9116 61.9752 63.3747 62.0457 62.9318C62.1462 62.2033 62.1063 61.4623 61.9282 60.7488C61.9167 60.6278 61.8662 60.5138 61.7842 60.424C61.7023 60.3342 61.5933 60.2735 61.4739 60.2511C61.0822 60.1766 60.9256 60.4275 60.8668 60.7214C60.718 61.4386 60.6122 62.1597 60.4751 62.8808C60.4007 63.312 60.3694 63.8763 59.8015 63.8293C59.2335 63.7822 59.2884 63.2022 59.304 62.775C59.304 62.2891 59.398 61.807 59.4176 61.6424" fill="white"/>
<path d="M62.3591 110.373C62.3904 111.004 62.4296 111.639 62.4609 112.274C62.4922 112.909 62.645 113.712 61.7011 113.92C60.8707 114.1 60.0286 113.939 59.6605 113.136C58.7283 111.141 58.744 108.954 58.7714 106.822C58.7714 105.995 59.6918 105.995 60.4125 106.062C61.3211 106.148 62.2455 106.223 62.3042 107.426C62.3552 108.398 62.3042 109.385 62.3042 110.357H62.3473" fill="white"/>
<path d="M78.6957 115.95C79.2042 119.345 80.9375 122.435 83.568 124.639C83.8323 124.914 84.1624 125.117 84.527 125.229C84.8917 125.34 85.2788 125.357 85.6517 125.277C87.755 124.886 89.2786 125.716 90.4184 127.805C88.9379 126.688 87.4613 126.281 85.8319 126.63C84.136 127.021 83.0315 128.095 82.2599 130C82.1032 128.558 82.3891 127.578 83.0902 126.841C83.7913 126.104 83.4819 125.759 82.8474 125.274C81.2259 124.004 80.0273 122.369 78.7544 120.767C77.3444 118.983 78.4607 117.541 78.6917 115.938" fill="white"/>
<path d="M57.9998 82.6137C57.8772 83.8165 57.5694 84.9931 57.0872 86.1017C56.5584 87.4068 55.9122 88.6648 55.309 89.9346C54.7724 91.0477 53.7423 91.3965 52.7866 90.7734C51.831 90.1502 51.972 89.335 52.5477 88.5159C52.9668 87.9202 53.3977 87.3402 53.8481 86.7523C54.8703 85.4551 55.9631 84.2166 56.4253 82.5628C56.5428 82.1473 56.86 81.583 57.4828 81.7789C57.6518 81.8385 57.7954 81.9542 57.8895 82.1068C57.9836 82.2594 58.0225 82.4397 57.9998 82.6176" fill="white"/>
<path d="M42.0549 127.139C43.4845 125.466 44.9963 124.897 46.7079 125.293C47.5304 125.485 47.9612 125.219 48.5057 124.776C51.3257 122.491 52.9237 119.528 53.4877 115.852C54.3063 117.78 54.7411 119.485 53.1861 121.252C52.0111 122.605 50.9654 124.09 49.5358 125.219C48.9052 125.716 48.3373 126.089 49.2381 126.963C49.8883 127.594 50.1037 128.566 50.0214 129.875C48.2981 126.21 45.4859 126.077 42.0627 127.131" fill="white"/>
<path d="M41.6358 110.6C41.5808 110.844 41.498 111.081 41.389 111.306C40.0907 113.585 38.4291 115.637 36.4696 117.38C35.937 117.843 35.1654 118.58 34.4486 117.713C33.8494 116.988 34.3076 116.232 34.8716 115.632C36.595 113.787 38.3457 111.968 39.9007 109.977C40.0317 109.798 40.2151 109.664 40.4257 109.594C40.6362 109.523 40.8634 109.52 41.0757 109.585C41.5418 109.695 41.6201 110.087 41.6554 110.612" fill="white"/>
<path d="M91.7657 109.511C92.0069 109.535 92.2391 109.615 92.4433 109.746C92.6475 109.877 92.8179 110.054 92.9407 110.263C94.3766 112.096 95.9227 113.839 97.5703 115.483C97.8541 115.811 98.0925 116.174 98.2792 116.565C98.3986 116.781 98.4367 117.033 98.3864 117.275C98.3361 117.516 98.2007 117.732 98.005 117.882C97.6134 118.235 97.1943 118.047 96.7908 117.843C95.6746 117.278 94.9343 116.307 94.1314 115.397C92.9813 114.144 91.9786 112.764 91.143 111.282C90.6416 110.357 90.998 109.499 91.754 109.511" fill="white"/>
<path d="M75.954 111.705C76.3456 109.769 76.4749 107.724 76.6746 105.69C76.7843 104.604 78.1865 103.73 79.3223 103.828C79.949 103.871 80.2388 104.22 80.1057 104.788C79.6721 107.283 78.8178 109.686 77.5794 111.894C77.439 112.126 77.2311 112.31 76.9834 112.422C76.7356 112.533 76.4599 112.566 76.1929 112.517C75.8012 112.442 75.9618 112.054 75.9344 111.705" fill="white"/>
<path d="M57.2478 111.408C57.2478 112.325 56.6916 112.583 55.7908 112.07C54.8273 111.529 54.4395 110.541 54.1144 109.601C53.6875 108.374 53.4525 107.085 53.1352 105.823C52.8885 104.843 53.335 104.475 54.275 104.526C55.6145 104.596 56.4683 105.392 56.6524 106.779C56.8561 108.323 57.0441 109.863 57.2478 111.408Z" fill="white"/>
<path d="M65.1125 120.719C65.1125 121.601 65.1321 122.483 65.1125 123.365C65.1125 123.874 64.9402 124.419 64.3683 124.474C64.0732 124.527 63.7688 124.466 63.5176 124.302C63.2663 124.138 63.0873 123.884 63.0171 123.592C62.5349 121.699 62.1868 119.774 61.9752 117.831C61.9126 117.047 61.9282 116.322 63.0327 116.338C64.0707 116.357 65.0694 116.408 65.1282 117.784C65.1713 118.76 65.1282 119.744 65.1282 120.719H65.1125Z" fill="white"/>
<path d="M78.7387 89.5858C78.2922 89.386 77.6695 89.4996 77.4071 88.9078C76.4631 86.7758 74.8455 84.9887 74.164 82.7234C73.9604 82.0376 73.6862 81.2655 74.4813 80.9363C75.343 80.5797 75.621 81.4066 75.8795 82.0376C76.7099 84.0599 78.0611 85.7059 79.5378 87.2775C79.9294 87.7007 80.3211 88.175 80.0978 88.8451C79.8746 89.5153 79.2597 89.4212 78.7387 89.5976" fill="white"/>
<path d="M88.3112 111.584C88.5628 111.579 88.8118 111.637 89.035 111.753C89.2582 111.87 89.4484 112.041 89.588 112.25C90.9393 114.029 92.3297 115.777 93.6379 117.588C94.0296 118.141 94.5975 118.881 93.8847 119.548C93.1718 120.214 92.5569 119.587 92.0986 119.132C90.2343 117.286 88.9026 115.041 87.6414 112.764C87.2497 112.062 87.6179 111.666 88.3112 111.588" fill="white"/>
<path d="M39.2505 119.771C38.3418 119.571 38.2752 118.987 38.5651 118.321C38.9521 117.534 39.4479 116.806 40.0377 116.158C40.9973 115.001 41.8943 113.806 42.7794 112.568C42.9081 112.334 43.0833 112.129 43.2941 111.965C43.5049 111.801 43.747 111.682 44.0054 111.615C44.6947 111.494 45.3449 111.807 44.9806 112.532C43.6764 115.127 42.2076 117.627 39.8889 119.508C39.692 119.628 39.478 119.716 39.2544 119.771" fill="white"/>
<path d="M64.8344 76.735C64.8344 77.5188 64.8344 78.3027 64.8344 79.0865C64.8344 80.1799 64.1882 80.4856 63.2482 80.5287C62.1006 80.5836 62.175 79.7998 62.2102 79.0512C62.2925 77.2053 62.3904 75.3594 62.4727 73.5135C62.5001 72.8315 62.6646 72.1457 63.4479 72.1614C63.7714 72.1696 64.0785 72.305 64.3029 72.5383C64.5272 72.7716 64.6507 73.0839 64.6464 73.4077C64.7326 74.5207 64.8031 75.6337 64.8775 76.7468H64.8305" fill="white"/>
<path d="M57.2321 115.139C58.4071 115.26 59.304 115.832 59.445 117.075C59.6853 118.91 60.085 120.721 60.6396 122.487C60.7571 122.879 60.9921 123.396 60.4634 123.663C59.9346 123.929 59.6174 123.569 59.351 123.189C57.8353 121.002 56.9148 118.544 56.2177 115.997C56.0258 115.28 56.6093 115.096 57.2204 115.15" fill="white"/>
<path d="M69.8086 78.816C69.9026 79.8703 69.2525 80.0937 68.5436 80.1956C67.7602 80.3092 67.0983 80.0349 67.0278 79.2001C66.8398 77.0603 66.7092 74.9152 66.6361 72.7649C66.6126 71.9811 67.4508 71.6832 68.0579 72.2084C68.3201 72.4287 68.5109 72.722 68.6062 73.051C69.041 75.0106 69.4248 76.9701 69.8008 78.816" fill="white"/>
<path d="M114.338 61.1878C114.295 63.0023 113.48 64.3701 112.407 65.5968C111.514 66.6197 110.566 67.5956 109.602 68.5518C109.328 68.8183 108.98 69.3357 108.51 68.9438C108.04 68.5518 108.267 68.0463 108.564 67.623C109.097 66.8666 109.661 66.1337 110.182 65.3695C111.193 63.8808 112.009 62.2687 112.61 60.5725C112.791 60.0747 112.775 59.2361 113.605 59.3967C114.318 59.5378 114.201 60.3021 114.306 60.8547C114.324 60.9623 114.334 61.071 114.338 61.18" fill="white"/>
<path d="M67.7759 120.774C67.7759 119.677 67.8072 118.846 67.7759 118.031C67.7093 116.687 68.5044 116.389 69.6285 116.377C70.9993 116.377 70.7487 117.349 70.7056 118.133C70.5959 120.045 69.8792 121.833 69.4601 123.682C69.4443 123.82 69.401 123.952 69.3328 124.072C69.2646 124.192 69.173 124.297 69.0633 124.381C68.9536 124.465 68.8281 124.526 68.6944 124.56C68.5607 124.594 68.4215 124.601 68.285 124.58C67.5722 124.454 67.5879 123.816 67.5957 123.302C67.5957 122.377 67.721 121.452 67.772 120.79" fill="white"/>
<path d="M82.6554 94.8531C82.5998 96.2596 82.395 97.6561 82.0444 99.0192C81.9074 99.5679 81.7546 100.164 81.2219 100.52C80.9164 100.728 80.6775 101.198 80.2428 100.959C80.0813 100.844 79.9602 100.681 79.8969 100.493C79.8336 100.305 79.8313 100.102 79.8903 99.9128C80.3103 97.3699 80.4691 94.7908 80.3642 92.2156C80.3407 91.6395 80.5169 91.1339 81.2259 91.0947C81.8447 91.0594 82.0092 91.4866 82.1659 92C82.4803 92.9188 82.6456 93.882 82.6554 94.8531Z" fill="white"/>
<path d="M18.1747 61.1799C18.1674 60.9629 18.1938 60.7461 18.253 60.5372C18.4528 60.1218 18.4371 59.4751 19.0364 59.4163C19.6356 59.3575 19.7688 59.9768 19.9137 60.4157C20.6916 62.7231 21.8659 64.877 23.3839 66.7804C23.7116 67.2028 24.0025 67.6525 24.2534 68.1246C24.3209 68.2542 24.3414 68.4031 24.3114 68.546C24.2814 68.689 24.2028 68.8171 24.0889 68.9085C24.044 68.9503 23.9909 68.9825 23.9331 69.0031C23.8753 69.0237 23.8138 69.0322 23.7526 69.0282C23.6913 69.0241 23.6315 69.0076 23.5769 68.9796C23.5223 68.9516 23.4739 68.9127 23.4348 68.8654C21.3707 66.8353 18.9659 65.052 18.3431 61.9638C18.2844 61.6777 18.2413 61.3877 18.2021 61.1799" fill="white"/>
<path d="M84.7 113.23C85.1851 113.345 85.6066 113.644 85.875 114.065C87.1244 115.805 88.3034 117.592 89.6899 119.242C90.1599 119.798 90.5946 120.653 89.9053 121.202C89.2159 121.75 88.4522 121.174 88.0057 120.614C86.5385 118.8 85.2566 116.844 84.179 114.774C83.85 114.135 83.6385 113.434 84.7156 113.23" fill="white"/>
<path d="M47.9142 113.273C48.0501 113.262 48.1863 113.29 48.3069 113.354C48.4276 113.417 48.5278 113.514 48.5958 113.632C48.6639 113.75 48.6971 113.885 48.6915 114.021C48.686 114.158 48.6419 114.29 48.5644 114.402C47.4446 116.734 46.018 118.906 44.3226 120.861C43.931 121.296 43.2142 121.684 42.6189 121.186C42.0235 120.688 42.3564 120.01 42.7442 119.485C44.1033 117.647 45.6034 115.911 46.7901 113.947C46.923 113.765 47.0909 113.612 47.284 113.496C47.4771 113.38 47.6914 113.305 47.9142 113.273Z" fill="white"/>
<path d="M115.121 67.2585C115.167 67.9643 115.021 68.6694 114.696 69.2978C114.372 69.9263 113.882 70.4543 113.28 70.8249C112.301 71.4598 111.322 72.0947 110.327 72.6983C109.916 72.9491 109.379 73.2391 109.003 72.8158C108.627 72.3926 108.89 71.8596 109.179 71.4755C109.606 70.9465 110.061 70.4414 110.542 69.9627C111.541 68.9006 112.54 67.8346 113.562 66.7921C113.923 66.4277 114.267 65.7575 114.812 65.9613C115.356 66.1651 115.019 66.9019 115.121 67.2585Z" fill="white"/>
<path d="M60.7062 73.4468C60.5339 75.4417 60.3733 77.1426 60.2519 78.8474C60.1775 79.8311 59.6095 80.078 58.7596 79.9448C57.9097 79.8115 57.4789 79.4039 57.6825 78.432C58.0439 76.814 58.3055 75.1753 58.4659 73.5252C58.5285 72.7688 58.7048 71.8517 59.8289 72.0203C60.8472 72.1731 60.718 73.0118 60.718 73.4468" fill="white"/>
<path d="M17.4501 67.1605C17.5989 66.8 17.3052 66.2043 17.7791 65.9848C18.253 65.7653 18.5311 66.3023 18.8209 66.6001C20.18 67.9953 21.5039 69.4258 22.8826 70.8014C23.325 71.1792 23.6169 71.7036 23.7051 72.2789C23.7677 72.8276 23.4857 73.2234 22.9452 72.9217C21.1044 71.887 19.0285 71.1424 17.9044 69.1554C17.5818 68.5358 17.4253 67.8431 17.4501 67.1449" fill="white"/>
<path d="M76.3691 116.083C76.0793 116.867 75.7934 117.619 75.4996 118.388C74.806 120.1 73.9385 121.736 72.9107 123.271C72.6913 123.62 72.4211 123.988 72.0294 123.874C71.5124 123.725 71.72 123.263 71.8258 122.883C72.4133 120.825 73.1927 118.827 73.4708 116.675C73.6 115.66 74.5244 115.354 75.4291 115.213C76.0754 115.111 76.3417 115.405 76.3613 116.083" fill="white"/>
<path d="M114.808 73.2979C114.799 73.9266 114.61 74.5394 114.263 75.0634C113.915 75.5874 113.425 76.0003 112.849 76.253C111.941 76.7037 110.989 77.0603 110.049 77.4287C109.685 77.5776 109.246 77.6874 108.94 77.4287C108.635 77.17 108.729 76.7233 108.819 76.3313C108.868 76.0671 108.969 75.8153 109.117 75.5906C109.264 75.3659 109.454 75.1727 109.677 75.0223C111.067 74.1445 112.458 73.2548 113.907 72.4867C114.878 71.9693 114.718 72.8551 114.796 73.2705" fill="white"/>
<path d="M70.9523 71.5225C71.1992 71.5532 71.4339 71.6473 71.6336 71.7957C71.8333 71.944 71.9912 72.1415 72.0921 72.3691C72.7423 74.1484 73.3924 75.9316 74.023 77.7187C74.2855 78.4594 73.9721 78.9689 73.2397 79.1727C72.5073 79.3765 72.0412 79.1727 71.8218 78.3889C71.2931 76.5233 70.7056 74.6696 70.1886 72.8002C70.0162 72.177 70.1886 71.6244 70.9445 71.5225" fill="white"/>
<path d="M23.7599 76.7742C23.8617 77.4796 23.4622 77.7657 22.91 77.558C21.5783 77.0172 20.137 76.6841 18.9698 75.8101C18.5281 75.4227 18.1902 74.9309 17.9867 74.3796C17.7399 73.8074 17.5558 73.0393 18.018 72.5846C18.5859 72.0281 19.0559 72.808 19.5181 73.0549C20.6265 73.6467 21.7036 74.3051 22.769 74.9792C23.0884 75.1523 23.3515 75.4134 23.5271 75.7315C23.7027 76.0497 23.7835 76.4115 23.7599 76.7742Z" fill="white"/>
<path d="M51.9524 115.676C51.8545 116.553 51.404 117.079 51.0515 117.659C50.1468 119.156 49.3164 120.712 48.114 121.997C47.7223 122.424 47.174 123.094 46.5121 122.605C45.8501 122.115 46.3946 121.456 46.7157 120.951C47.8568 119.153 49.0162 117.365 50.1938 115.585C50.4914 115.131 50.9027 114.719 51.5176 114.88C51.5987 114.901 51.6746 114.938 51.7408 114.99C51.807 115.041 51.8621 115.105 51.9028 115.179C51.9434 115.252 51.9688 115.333 51.9773 115.416C51.9858 115.5 51.9773 115.584 51.9524 115.664" fill="white"/>
<path d="M81.1279 114.841C81.3783 114.85 81.6224 114.922 81.8373 115.051C82.0523 115.18 82.2314 115.361 82.3578 115.578C83.5994 117.494 84.8214 119.422 86.0552 121.343C86.3058 121.735 86.5134 122.177 86.1727 122.55C85.7105 123.055 85.2757 122.605 84.8919 122.342C83.5641 121.425 83.0119 119.912 82.1502 118.65C81.5946 117.855 81.1159 117.008 80.7206 116.122C80.4973 115.621 80.4503 114.947 81.1436 114.841" fill="white"/>
<path d="M109.36 81.9788C108.87 81.9592 108.31 81.9475 108.091 81.4576C107.824 80.8775 108.243 80.4033 108.647 80.0663C109.908 79.0199 111.498 78.6515 113.01 78.1694C113.836 77.9029 113.938 78.5339 113.754 79.2354C113.257 81.1009 111.796 82.0258 109.36 81.9788Z" fill="white"/>
<path d="M23.1332 81.9553C20.7832 81.9318 19.3536 81.1127 18.8523 79.4157C18.676 78.8278 18.4998 77.9107 19.5534 78.2047C21.0652 78.6279 22.6515 78.9885 23.8931 80.078C24.2848 80.4072 24.743 80.8383 24.4258 81.4536C24.1633 81.9631 23.615 81.9082 23.1332 81.9553Z" fill="white"/>
<path d="M107.131 71.938C107.084 73.7839 104.942 75.9041 103.214 75.8336C101.879 75.7787 102.486 74.7127 102.752 74.3796C103.806 73.0549 105.012 71.8518 106.175 70.6133C106.34 70.437 106.567 70.288 106.81 70.5075C107.256 70.9347 107.053 71.5147 107.123 71.938" fill="white"/>
<path d="M29.9131 74.6304C30.0815 75.7356 29.7564 75.9041 29.1297 75.8061C26.8815 75.5083 25.1738 73.3528 25.495 71.1894C25.5734 70.6603 25.7849 70.0137 26.3449 70.6329C27.4534 71.8674 28.5931 73.0627 29.7916 74.2032C29.9679 74.3717 29.9483 74.748 29.9131 74.5951" fill="white"/>
<path d="M29.0357 79.9252C26.768 79.788 25.8436 79.0943 25.5694 77.366C25.4128 76.3588 25.8554 76.0648 26.717 76.445C27.7344 76.8932 28.7233 77.4037 29.6781 77.9734C30.1559 78.2595 30.6768 78.6789 30.3987 79.3961C30.1481 80.0388 29.5723 79.9644 29.0357 79.9252Z" fill="white"/>
<path d="M103.575 79.933C102.873 79.9683 102.4 80.0075 102.212 79.4823C102.11 79.2557 102.094 79.0001 102.166 78.7625C102.238 78.5249 102.393 78.3212 102.603 78.189C103.739 77.5502 104.891 76.9427 106.077 76.4058C106.677 76.1354 106.955 76.492 106.951 77.1308C106.951 78.5731 106.324 79.3451 104.879 79.6587C104.354 79.7723 103.833 79.8742 103.555 79.933" fill="white"/>
<path d="M23.4701 85.8392C22.3852 85.9254 21.3237 85.8901 20.7284 84.7065C20.368 83.9776 20.3955 83.4171 21.3981 83.4877C22.4193 83.5313 23.4348 83.6624 24.4336 83.8796C25.0642 84.0324 25.8084 84.4479 25.683 85.2474C25.5577 86.0469 24.7822 85.8117 24.2182 85.8352C23.9753 85.8352 23.7286 85.8352 23.4622 85.8352" fill="white"/>
<path d="M108.976 85.8391C108.83 85.8528 108.683 85.8528 108.537 85.8391C107.926 85.7373 106.97 86.1409 106.919 85.1219C106.88 84.2088 107.703 83.8796 108.521 83.7699C109.34 83.6601 110.155 83.5543 110.973 83.472C111.365 83.4367 111.804 83.3858 111.984 83.8404C112.03 84.0298 112.031 84.2275 111.985 84.4171C111.939 84.6067 111.849 84.7826 111.721 84.9299C111.059 85.9724 110.002 85.8783 108.98 85.8431" fill="white"/>
<path d="M97.9267 83.5268C97.3641 83.5196 96.8027 83.4738 96.2464 83.3897C95.8743 83.3074 95.232 83.3897 95.4161 82.6803C95.5375 82.2061 95.4357 81.5477 96.1994 81.434C96.9632 81.3204 97.6408 81.2185 98.3536 81.0695C98.9685 80.9402 99.7401 80.5797 99.9516 81.4419C100.062 81.8507 100.01 82.2862 99.8084 82.6582C99.6064 83.0302 99.2693 83.3104 98.8667 83.4406C98.5678 83.5325 98.2531 83.5619 97.9424 83.5268" fill="white"/>
<path d="M35.0674 83.4641C33.8572 83.7502 32.9446 83.3505 32.6077 82.1081C32.4002 81.3243 32.6313 80.7246 33.6574 80.9324C34.3664 81.0852 35.0792 81.3674 35.7842 81.3478C36.8652 81.3164 37.2099 81.9631 37.1668 82.7665C37.1159 83.6915 36.2072 83.2917 35.6628 83.4445C35.4652 83.4703 35.2651 83.4703 35.0674 83.4445" fill="white"/>
<path d="M103.011 83.7699C102.501 83.5778 101.538 84.1108 101.385 83.1585C101.232 82.2061 101.93 81.7946 102.819 81.6653C103.344 81.5908 103.861 81.4497 104.385 81.3322C104.91 81.2146 105.666 80.8109 105.893 81.5751C106.001 81.9558 105.962 82.3628 105.786 82.7166C105.609 83.0704 105.306 83.3453 104.938 83.4877C104.346 83.7855 103.704 83.6915 102.999 83.762" fill="white"/>
<path d="M29.5449 83.7463C28.3934 83.715 27.285 83.7699 26.8032 82.4922C26.6583 82.1003 26.5329 81.7084 26.8032 81.387C27.0734 81.0657 27.4925 81.1127 27.8764 81.2067C28.4758 81.3919 29.0869 81.5372 29.7055 81.6418C30.6102 81.7397 31.3152 82.2453 31.2526 83.0605C31.1742 84.1187 30.1324 83.6249 29.5645 83.7463" fill="white"/>
<path d="M24.9114 87.5989C25.2519 87.5812 25.5932 87.5812 25.9337 87.5989C26.623 87.6694 27.1518 87.9712 27.2379 88.7315C27.3241 89.4918 26.6309 89.4644 26.1687 89.629C25.3853 89.9033 24.5354 90.1071 23.7442 89.774C23.1763 89.5349 22.6123 89.092 22.7729 88.3357C22.91 87.6929 23.4583 87.5871 24.0341 87.6028C24.3278 87.6028 24.6177 87.6028 24.9114 87.6028V87.5989Z" fill="white"/>
<path d="M107.585 89.9346C107.26 89.8523 106.841 89.7191 106.41 89.6446C105.866 89.5506 105.298 89.5075 105.341 88.7471C105.384 87.9868 105.866 87.6341 106.583 87.5988C107.166 87.5714 107.758 87.5988 108.333 87.5988C108.984 87.5988 109.732 87.6184 109.794 88.4414C109.857 89.2645 109.175 89.6956 108.416 89.8837C108.14 89.9245 107.86 89.9403 107.581 89.9307" fill="white"/>
<path d="M105.173 91.0359C105.55 91.1134 105.921 91.2155 106.285 91.3416C106.794 91.5454 107.585 91.569 107.503 92.3449C107.433 92.9994 106.896 93.4384 106.289 93.7088C105.682 93.9792 103.704 93.3169 103.41 92.729C103.321 92.5813 103.28 92.4097 103.293 92.2377C103.306 92.0658 103.371 91.902 103.481 91.7688C103.681 91.5171 103.94 91.3185 104.235 91.1907C104.53 91.0629 104.852 91.0097 105.173 91.0359Z" fill="white"/>
<path d="M26.9559 93.8107C25.965 93.7519 25.3109 93.3404 25.119 92.4899C24.9114 91.5768 25.7457 91.5728 26.294 91.3495C26.3807 91.3069 26.4696 91.269 26.5604 91.2358C27.4416 90.9967 28.2876 90.9615 28.9926 91.6787C29.2472 91.9373 29.4196 92.2665 29.1963 92.5957C28.6362 93.4266 27.7158 93.5951 26.952 93.8107" fill="white"/>
<path d="M102.462 94.6259C103.222 94.8101 104.24 94.8728 104.558 95.7702C104.855 96.6011 104.045 97.0714 103.383 97.3693C102.427 97.8082 101.785 96.9538 101.033 96.5854C100.661 96.4091 100.641 95.9858 100.856 95.5743C101.005 95.2867 101.23 95.0453 101.506 94.8761C101.782 94.7068 102.099 94.6163 102.423 94.6141" fill="white"/>
<path d="M102.787 85.2199C103.257 85.553 104.526 84.5968 104.397 86.0037C104.303 87.0619 103.512 87.8026 102.321 87.4852C101.557 87.2814 100.206 87.5479 100.273 86.3447C100.355 84.8789 101.738 85.3061 102.787 85.2121" fill="white"/>
<path d="M29.9444 94.6415C30.9745 94.6415 31.3701 95.0765 31.6638 95.5899C31.7178 95.6727 31.7546 95.7655 31.7718 95.8629C31.789 95.9602 31.7864 96.06 31.7641 96.1563C31.7418 96.2526 31.7002 96.3434 31.6419 96.4232C31.5836 96.503 31.5098 96.5702 31.4249 96.6207C30.7473 97.0126 30.1755 97.8513 29.2433 97.4045C28.5461 97.0714 27.614 96.5109 27.9547 95.7389C28.2955 94.9668 29.3647 94.6925 29.9444 94.6415Z" fill="white"/>
<path d="M29.7094 85.2356H30.0462C31.0058 85.2356 32.2592 85.0592 32.2905 86.4114C32.3179 87.5087 31.0607 87.2932 30.3322 87.4852C30.0979 87.5657 29.8485 87.592 29.6026 87.5622C29.3568 87.5323 29.1209 87.447 28.9127 87.3127C28.7046 87.1783 28.5296 86.9985 28.401 86.7867C28.2724 86.5749 28.1934 86.3367 28.1701 86.09C27.8999 84.3695 29.4391 85.8039 29.6976 85.2356" fill="white"/>
<path d="M35.5061 87.2226C34.8638 87.1364 34.2567 86.9012 34.1 86.1997C33.9199 85.4159 34.5622 85.2513 35.1536 85.1376C35.7282 85.0736 36.2976 84.9688 36.8574 84.8241C37.8679 84.4675 37.8131 85.263 38.0324 85.8039C38.3262 86.5132 37.8522 86.623 37.3509 86.7405C36.7399 86.8895 36.1328 87.0541 35.5022 87.2226" fill="white"/>
<path d="M96.6851 87.156C96.3796 87.0658 95.8313 86.8699 95.2673 86.7641C94.6367 86.6426 94.2646 86.4192 94.5544 85.702C94.7659 85.1847 94.7816 84.4988 95.6903 84.8515C96.1798 85.0397 96.7478 85.0005 97.2569 85.1298C97.8366 85.2748 98.6983 85.2591 98.526 86.1723C98.385 86.9248 97.7035 87.1991 96.6773 87.1638" fill="white"/>
<path d="M96.8496 79.6587C97.4959 78.2282 98.6983 77.1151 100.868 75.9276C101.048 78.5417 100.006 79.5097 96.8496 79.6587Z" fill="white"/>
<path d="M31.7147 75.7983C33.3049 76.8918 34.8481 77.9382 35.8782 79.6469C32.596 79.5215 31.6129 78.6162 31.7147 75.7983Z" fill="white"/>
<path d="M34.6836 99.4033C34.3468 100.309 33.7083 100.798 32.8937 100.74C32.079 100.681 31.2212 100.254 31.2839 99.3602C31.3466 98.4666 32.1573 97.9375 32.9955 97.8983C33.959 97.8513 34.3233 98.6822 34.6836 99.4033Z" fill="white"/>
<path d="M101.369 99.1956C101.087 100.336 100.382 100.822 99.509 100.736C98.7688 100.665 97.8601 100.316 97.9854 99.3171C98.0166 98.9189 98.2018 98.5486 98.5018 98.285C98.8017 98.0215 99.1927 97.8856 99.5913 97.9062C99.9742 97.9477 100.34 98.0885 100.652 98.3146C100.963 98.5407 101.211 98.8444 101.369 99.1956Z" fill="white"/>
<path d="M100.386 88.7275C100.958 88.9274 101.906 88.5747 102.345 89.4526C102.437 89.6836 102.448 89.9389 102.377 90.1771C102.306 90.4153 102.156 90.6226 101.953 90.7655C101.17 91.4239 100.386 91.0633 99.6383 90.6989C99.1213 90.452 98.4202 90.2521 98.7061 89.4761C98.9529 88.8059 99.5639 88.5865 100.402 88.7275" fill="white"/>
<path d="M32.3453 88.7275C33.0817 88.5825 33.7162 88.8059 33.8807 89.6172C34.0452 90.4284 33.2736 90.499 32.7918 90.7616C32.4991 90.9311 32.1756 91.0403 31.8401 91.0829C31.0567 91.1613 30.3596 90.9497 30.2029 90.0404C30.0462 89.1312 30.7277 88.9039 31.4327 88.7902C31.7187 88.7432 32.0163 88.7471 32.3453 88.7275Z" fill="white"/>
<path d="M35.8038 92.9837C35.4826 93.9635 34.6288 94.3711 33.724 94.473C32.9877 94.5514 32.4433 94.0223 32.314 93.262C32.2278 92.7251 33.9198 91.6943 34.711 91.7727C35.3769 91.8511 35.7137 92.2861 35.8038 92.9837Z" fill="white"/>
<path d="M98.6709 94.4926C98.0246 94.1947 96.9593 94.0732 96.8183 92.9641C96.7867 92.8044 96.7956 92.6393 96.8441 92.4839C96.8926 92.3285 96.9792 92.1877 97.096 92.0743C97.2128 91.9609 97.356 91.8786 97.5128 91.8348C97.6695 91.791 97.8347 91.7872 97.9933 91.8237C98.8745 92.0079 100.089 92.0274 100.214 93.2541C100.285 93.9596 99.6775 94.4691 98.6709 94.4926Z" fill="white"/>
<path d="M39.5599 89.4408C38.8236 90.111 38.0676 90.6166 37.1629 90.6636C36.9918 90.6803 36.8192 90.6565 36.6591 90.5939C36.499 90.5313 36.3558 90.4319 36.2414 90.3036C36.1269 90.1753 36.0443 90.0218 36.0002 89.8555C35.9562 89.6893 35.9519 89.5149 35.9879 89.3467C36.2699 88.1122 37.5898 88.2494 38.4907 88.0574C39.3014 87.8888 38.9998 89.0371 39.5795 89.4408" fill="white"/>
<path d="M79.526 113.195C79.8628 112.282 80.137 111.576 80.3877 110.863C80.6384 110.15 81.3277 110.079 81.9191 110.012C82.3774 109.965 82.675 110.31 82.7964 110.796C82.898 111.1 82.8838 111.43 82.7566 111.724C82.6293 112.018 82.398 112.254 82.1071 112.387C81.3162 112.839 80.4342 113.107 79.526 113.171" fill="white"/>
<path d="M52.3675 113.124C51.3727 113.124 49.6572 111.948 49.7277 111.227C49.7864 110.643 49.9196 110.052 50.7186 110.02C51.6508 109.985 52.7279 111.325 52.8062 112.611C52.8062 112.96 52.8062 113.206 52.3675 113.124Z" fill="white"/>
<path d="M97.7739 96.3855C97.5233 97.0518 97.1982 97.5613 96.4501 97.5926C95.8273 97.5926 94.2842 96.2484 94.3899 95.7742C94.5192 95.2098 94.9578 94.7003 95.5062 94.8492C96.3953 95.0922 97.3666 95.3705 97.7739 96.3855Z" fill="white"/>
<path d="M96.642 89.3664C96.4814 90.2286 96.0702 90.8321 95.373 90.691C94.5427 90.5264 93.4617 90.3697 93.2502 89.3507C93.1796 89.0019 93.3285 87.8575 94.2176 88.0848C95.1067 88.3121 96.3208 88.2181 96.642 89.3664Z" fill="white"/>
<path d="M38.1852 95.7389C38.1852 96.3699 36.7556 97.6162 36.1054 97.573C35.3847 97.5299 34.8168 97.091 34.9304 96.3973C35.0831 95.3274 36.168 95.1275 36.9788 94.861C37.5506 94.669 38.0128 95.2098 38.2008 95.7389" fill="white"/>
<path d="M92.4276 101.751C92.2396 102.284 91.844 102.872 91.2526 102.774C90.2695 102.617 89.6546 101.763 89.4274 100.889C89.2864 100.352 89.8661 99.8501 90.5829 99.8697C91.2213 99.8697 92.4707 101.1 92.4394 101.751" fill="white"/>
<path d="M42.0705 99.8658C42.3314 99.8549 42.5861 99.9463 42.7807 100.12C42.9753 100.295 43.0942 100.538 43.1124 100.799C43.1711 101.379 41.8355 102.872 41.295 102.793C41.0047 102.758 40.7349 102.626 40.5299 102.417C40.3249 102.208 40.1969 101.936 40.167 101.645C40.0848 101.081 41.3929 99.8697 42.0705 99.8658Z" fill="white"/>
<path d="M39.5638 97.526C39.734 97.4927 39.9104 97.521 40.0618 97.6056C40.2131 97.6903 40.3295 97.826 40.3903 97.9885C40.6997 99.2034 39.6069 99.6541 38.9489 100.226C38.2909 100.798 37.8091 100.05 37.4684 99.5953C37.1276 99.1407 38.7178 97.5378 39.5638 97.5299" fill="white"/>
<path d="M95.2085 99.2191C95.1709 99.5178 95.035 99.7954 94.8222 100.008C94.6095 100.221 94.332 100.357 94.0335 100.395C93.5909 100.469 92.0751 98.8742 92.0751 98.4117C92.0628 98.2882 92.0799 98.1634 92.1252 98.0478C92.1705 97.9322 92.2426 97.829 92.3355 97.7467C92.4285 97.6644 92.5396 97.6054 92.6598 97.5745C92.78 97.5437 92.9058 97.5418 93.0269 97.5691C94.0531 97.718 94.6719 98.4588 95.2163 99.223" fill="white"/>
<path d="M88.0527 104.972C87.2458 104.808 86.7758 104.157 86.5917 103.315C86.4507 102.68 86.8033 102.292 87.4613 102.225C87.9743 102.174 89.4666 103.436 89.4666 103.918C89.4666 104.33 88.7224 104.937 88.0527 104.972Z" fill="white"/>
<path d="M44.5811 105.043C43.7978 104.929 43.0889 104.518 43.2377 103.914C43.3153 103.486 43.5266 103.094 43.8412 102.794C44.1559 102.494 44.5576 102.302 44.9885 102.245C45.5603 102.198 46.0773 102.515 46.0068 103.177C45.9618 103.589 45.8052 103.98 45.5539 104.309C45.3026 104.638 44.9662 104.892 44.5811 105.043Z" fill="white"/>
<path d="M98.2988 102.3C97.8444 102.946 97.4254 103.561 96.5715 103.503C95.7177 103.444 95.1145 103.072 95.1145 102.198C95.1145 101.324 95.8548 101.061 96.5558 101.151C96.9187 101.183 97.268 101.305 97.5722 101.505C97.8765 101.706 98.1262 101.979 98.2988 102.3Z" fill="white"/>
<path d="M94.4682 92.8113C94.2489 93.407 93.8416 94.034 93.2658 93.8969C92.5608 93.7283 91.566 93.4854 91.5934 92.486C91.5934 92.0079 92.0086 91.126 92.5491 91.275C93.305 91.4866 94.2724 91.757 94.4682 92.8113Z" fill="white"/>
<path d="M35.9095 103.503C35.1262 103.483 34.4094 102.946 34.4251 102.37C34.4486 101.52 35.4004 101.23 36.1563 101.167C36.9122 101.104 37.5898 101.504 37.4919 102.315C37.394 103.127 36.7477 103.491 35.9252 103.491" fill="white"/>
<path d="M89.3099 108.688C88.5501 108.551 88.0018 108.178 88.0566 107.457C88.1232 106.587 88.9144 106.281 89.6233 106.215C89.7831 106.204 89.9436 106.224 90.0954 106.275C90.2473 106.326 90.3875 106.407 90.508 106.513C90.6285 106.619 90.7269 106.747 90.7976 106.891C90.8683 107.035 90.9098 107.191 90.9197 107.351C90.9393 108.335 89.8896 108.308 89.3139 108.688" fill="white"/>
<path d="M40.1122 91.1104C40.5743 91.6081 41.1344 92.2391 40.9582 92.7251C40.8137 93.08 40.5647 93.3825 40.2443 93.5925C39.9239 93.8025 39.5472 93.91 39.1643 93.9008C39.0145 93.8884 38.8689 93.8448 38.7369 93.7729C38.6049 93.701 38.4893 93.6023 38.3975 93.4832C38.3057 93.3641 38.2398 93.2271 38.2039 93.0811C38.168 92.935 38.1629 92.783 38.1891 92.6349C38.3888 91.6904 39.4502 91.6943 40.1122 91.1221" fill="white"/>
<path d="M94.7542 105.019C94.4173 105.635 93.9708 106.125 93.2423 106.172C92.4315 106.223 91.7422 105.78 91.7226 104.976C91.703 104.259 92.3885 103.801 93.1052 103.757C93.9395 103.703 94.339 104.381 94.7542 105.019Z" fill="white"/>
<path d="M44.6203 107.481C44.4049 108.159 43.9897 108.656 43.2808 108.582C42.5719 108.507 41.7141 108.288 41.6632 107.406C41.6558 107.233 41.6878 107.06 41.7569 106.901C41.8259 106.741 41.9301 106.6 42.0617 106.487C42.1932 106.373 42.3487 106.292 42.5165 106.247C42.6842 106.203 42.8598 106.197 43.0301 106.23C43.3938 106.244 43.744 106.372 44.0298 106.598C44.3157 106.823 44.5225 107.134 44.6203 107.485" fill="white"/>
<path d="M39.5012 103.73C40.1983 103.926 40.8368 104.283 40.7976 105.063C40.7745 105.385 40.6246 105.684 40.3808 105.896C40.137 106.108 39.8192 106.214 39.4972 106.191C38.757 106.191 38.0089 105.694 37.9932 105.078C37.9697 104.361 38.7022 103.879 39.5012 103.73Z" fill="white"/>
<path d="M48.9796 105.56C48.7211 106.129 48.7524 107.002 47.7223 106.987C47.5761 107.001 47.4287 106.983 47.2896 106.937C47.1504 106.89 47.0226 106.814 46.9145 106.715C46.8063 106.615 46.7202 106.494 46.6617 106.36C46.6032 106.225 46.5735 106.079 46.5747 105.933C46.5705 105.539 46.7207 105.16 46.9933 104.876C47.2658 104.592 47.6387 104.427 48.0317 104.416C48.6349 104.416 48.96 104.863 48.9796 105.56Z" fill="white"/>
<path d="M84.6255 104.353C84.977 104.424 85.2985 104.6 85.547 104.858C85.7955 105.117 85.9591 105.445 86.016 105.799C86.1491 106.548 85.5068 106.932 84.841 106.975C83.9636 107.022 83.7756 106.27 83.6385 105.607C83.5015 104.945 83.9323 104.541 84.6177 104.365" fill="white"/>
<path d="M86.9795 109.581C86.9325 110.408 86.1962 110.6 85.5499 110.659C85.3914 110.67 85.2323 110.649 85.0822 110.597C84.9321 110.545 84.7942 110.463 84.6766 110.356C84.5591 110.249 84.4645 110.119 84.3985 109.975C84.3325 109.83 84.2965 109.674 84.2926 109.515C84.2926 108.664 85.0995 108.413 85.7183 108.382C85.8809 108.374 86.0435 108.398 86.1962 108.455C86.349 108.511 86.4886 108.598 86.6066 108.71C86.7246 108.823 86.8186 108.958 86.8827 109.107C86.9468 109.257 86.9797 109.418 86.9795 109.581Z" fill="white"/>
<path d="M72.0373 50.1985C71.2735 50.0731 70.6938 49.74 70.7487 48.9013C70.7498 48.7425 70.7843 48.5857 70.8501 48.4412C70.9159 48.2966 71.0115 48.1676 71.1305 48.0626C71.2495 47.9575 71.3894 47.8788 71.5409 47.8315C71.6924 47.7842 71.8522 47.7695 72.0098 47.7883C72.1674 47.7752 72.326 47.7966 72.4745 47.8511C72.623 47.9056 72.7578 47.9918 72.8697 48.1037C72.9815 48.2156 73.0676 48.3505 73.122 48.4991C73.1765 48.6476 73.1979 48.8063 73.1848 48.964C73.1944 49.1191 73.1723 49.2746 73.1199 49.4209C73.0675 49.5672 72.9858 49.7013 72.8799 49.8149C72.774 49.9286 72.646 50.0195 72.5038 50.0821C72.3617 50.1447 72.2082 50.1776 72.0529 50.1789" fill="white"/>
<path d="M48.2942 109.436C48.0944 110.173 47.7067 110.741 46.9938 110.663C46.3436 110.592 45.5172 110.334 45.6426 109.452C45.7248 108.86 46.1556 108.225 46.9586 108.39C47.5696 108.515 48.1806 108.743 48.2942 109.436Z" fill="white"/>
<path d="M91.8793 95.7232C91.8592 95.9905 91.7351 96.2391 91.5337 96.4158C91.3323 96.5924 91.0696 96.6829 90.8022 96.6677C90.1325 96.6364 89.541 96.0916 89.5567 95.5665C89.5567 95.1393 90.011 94.2614 90.5829 94.3398C90.9293 94.3754 91.2512 94.535 91.4894 94.7892C91.7276 95.0433 91.866 95.375 91.8793 95.7232Z" fill="white"/>
<path d="M78.2727 50.175C77.2308 50.1084 76.3691 50.0183 75.531 50.0026C74.775 50.0026 74.8025 49.5048 74.8534 48.9993C74.916 48.3448 75.3155 48.1763 75.8795 48.3879C76.8157 48.7809 77.6433 49.3939 78.2922 50.175" fill="white"/>
<path d="M42.0705 94.1673C42.4034 94.618 42.9909 95.0609 42.9949 95.5077C42.9711 95.8181 42.8306 96.1081 42.6016 96.319C42.3726 96.5299 42.0723 96.6461 41.7611 96.6442C41.6266 96.6542 41.4915 96.6357 41.3646 96.59C41.2377 96.5442 41.1219 96.4722 41.0247 96.3786C40.9275 96.2851 40.8511 96.1721 40.8005 96.047C40.7499 95.9219 40.7262 95.7875 40.731 95.6527C40.7506 94.8688 41.4908 94.6219 42.0705 94.1673Z" fill="white"/>
<path d="M89.2708 98.1726C89.2943 98.7213 89.0201 99.0505 88.5109 99.0231C88.2434 99.0151 87.987 98.9135 87.7867 98.7359C87.5863 98.5583 87.4545 98.316 87.4143 98.0512C87.3868 97.5848 87.8764 96.9852 88.3895 97.0635C88.6389 97.1238 88.861 97.2656 89.0207 97.4665C89.1803 97.6674 89.2683 97.916 89.2708 98.1726Z" fill="white"/>
<path d="M43.3199 98.0865C43.4492 97.624 43.7625 97.091 44.2795 97.0753C44.5136 97.1115 44.7286 97.2256 44.8899 97.3991C45.0512 97.5726 45.1494 97.7954 45.1686 98.0316C45.1375 98.2985 45.0109 98.5452 44.8122 98.726C44.6135 98.9068 44.3561 99.0095 44.0876 99.0153C43.5432 99.0153 43.3474 98.6587 43.3043 98.0865" fill="white"/>
<path d="M46.7627 99.2504C47.033 99.5365 47.644 99.6698 47.4638 100.167C47.3189 100.559 47.1544 101.155 46.5552 101.147C46.4456 101.16 46.3346 101.145 46.2323 101.103C46.1301 101.062 46.0399 100.995 45.9701 100.91C45.9003 100.824 45.8531 100.723 45.8328 100.614C45.8125 100.506 45.8198 100.394 45.8541 100.289C45.8859 100.045 45.9893 99.8167 46.151 99.6318C46.3127 99.4469 46.5256 99.3142 46.7627 99.2504Z" fill="white"/>
<path d="M85.9925 99.2661C86.3254 99.6149 86.8032 99.9441 86.7367 100.516C86.6975 100.873 86.4429 101.3 85.9533 101.163C85.6991 101.093 85.4765 100.939 85.3225 100.725C85.1686 100.511 85.0926 100.25 85.1073 99.9872C85.1553 99.7868 85.2689 99.6081 85.4299 99.4796C85.591 99.3511 85.7904 99.2801 85.9964 99.2779" fill="white"/>
<path d="M83.7091 101.226C84.8253 102.664 83.8736 103.185 82.722 104.004C83.1137 102.927 83.3761 102.158 83.7091 101.226Z" fill="white"/>
<path d="M81.1436 108.598C81.4099 107.775 81.6136 107.147 81.8251 106.501C82.9375 107.59 82.8395 107.986 81.1436 108.598Z" fill="white"/>
<path d="M50.652 106.415C50.9105 107.128 51.1534 107.79 51.4158 108.523C49.8491 108.037 49.7512 107.786 50.652 106.415Z" fill="white"/>
<path d="M49.7512 103.738C48.1023 102.825 48.0239 102.593 48.9091 101.265C49.195 102.1 49.4535 102.856 49.7512 103.738Z" fill="white"/>
<path d="M75.3743 47.4982C74.779 47.7922 74.3325 47.4982 73.8585 47.2278C73.9799 46.7575 74.3716 46.3695 74.728 46.393C75.2881 46.4322 75.249 47.0593 75.3743 47.4982Z" fill="white"/>
</svg>
