<svg width="24" height="24" viewBox="0 0 24 24" fill="none" xmlns="http://www.w3.org/2000/svg">
<path d="M3.35288 15.0496L2.3793 15.2779L3.35288 15.0496ZM3.35288 8.95043L2.3793 8.72206L3.35288 8.95043ZM20.6471 8.95044L19.6736 9.1788L20.6471 8.95044ZM20.6471 15.0496L19.6736 14.8212L20.6471 15.0496ZM15.0496 20.6471L14.8212 19.6735L15.0496 20.6471ZM8.95044 20.6471L9.1788 19.6735L8.95044 20.6471ZM8.95043 3.35288L9.1788 4.32645L8.95043 3.35288ZM15.0496 3.35288L14.8212 4.32645L15.0496 3.35288ZM4.32645 14.8212C3.89118 12.9656 3.89118 11.0344 4.32645 9.1788L2.3793 8.72206C1.87357 10.8781 1.87357 13.1219 2.3793 15.2779L4.32645 14.8212ZM19.6736 9.1788C20.1088 11.0344 20.1088 12.9656 19.6736 14.8212L21.6207 15.2779C22.1264 13.1219 22.1264 10.8781 21.6207 8.72207L19.6736 9.1788ZM14.8212 19.6735C12.9656 20.1088 11.0344 20.1088 9.1788 19.6735L8.72207 21.6207C10.8781 22.1264 13.1219 22.1264 15.2779 21.6207L14.8212 19.6735ZM9.1788 4.32645C11.0344 3.89118 12.9656 3.89118 14.8212 4.32645L15.2779 2.3793C13.1219 1.87357 10.8781 1.87357 8.72206 2.3793L9.1788 4.32645ZM9.1788 19.6735C6.77114 19.1088 4.89121 17.2289 4.32645 14.8212L2.3793 15.2779C3.11753 18.4251 5.57488 20.8825 8.72207 21.6207L9.1788 19.6735ZM15.2779 21.6207C18.4251 20.8825 20.8825 18.4251 21.6207 15.2779L19.6736 14.8212C19.1088 17.2289 17.2289 19.1088 14.8212 19.6735L15.2779 21.6207ZM14.8212 4.32645C17.2289 4.89121 19.1088 6.77114 19.6736 9.1788L21.6207 8.72207C20.8825 5.57488 18.4251 3.11753 15.2779 2.3793L14.8212 4.32645ZM8.72206 2.3793C5.57488 3.11753 3.11753 5.57488 2.3793 8.72206L4.32645 9.1788C4.89121 6.77114 6.77114 4.89121 9.1788 4.32645L8.72206 2.3793Z" fill="white"/>
<path d="M9.95711 11.0429C9.56658 10.6524 8.93342 10.6524 8.54289 11.0429C8.15237 11.4334 8.15237 12.0666 8.54289 12.4571L9.95711 11.0429ZM11.25 13.75L10.5429 14.4571C10.7347 14.6489 10.9961 14.7545 11.2672 14.7499C11.5384 14.7452 11.796 14.6306 11.9811 14.4323L11.25 13.75ZM15.4811 10.6823C15.8579 10.2786 15.8361 9.64578 15.4323 9.26894C15.0286 8.89211 14.3958 8.91393 14.0189 9.31768L15.4811 10.6823ZM8.54289 12.4571L10.5429 14.4571L11.9571 13.0429L9.95711 11.0429L8.54289 12.4571ZM11.9811 14.4323L15.4811 10.6823L14.0189 9.31768L10.5189 13.0677L11.9811 14.4323Z" fill="white"/>
</svg>
