<svg width="24" height="24" viewBox="0 0 24 24" fill="none" xmlns="http://www.w3.org/2000/svg">
<path d="M17 12C17 14.7614 14.7614 17 12 17C9.23858 17 7 14.7614 7 12C7 9.23858 9.23858 7 12 7C14.7614 7 17 9.23858 17 12Z" stroke="white" stroke-width="2"/>
<path d="M17.6046 4.98123C17.2141 5.37176 17.2141 6.00492 17.6046 6.39545C17.9951 6.78597 18.6283 6.78597 19.0188 6.39545L17.6046 4.98123ZM19.1357 6.27854C19.5263 5.88801 19.5263 5.25485 19.1357 4.86432C18.7452 4.4738 18.112 4.4738 17.7215 4.86432L19.1357 6.27854ZM4.86425 17.7216C4.47377 18.1122 4.47384 18.7453 4.86441 19.1358C5.25498 19.5263 5.88815 19.5262 6.27863 19.1357L4.86425 17.7216ZM6.39551 19.0188C6.78599 18.6282 6.78591 17.995 6.39534 17.6045C6.00477 17.2141 5.37161 17.2141 4.98113 17.6047L6.39551 19.0188ZM11 3.07394C11 3.62622 11.4477 4.07394 12 4.07394C12.5523 4.07394 13 3.62622 13 3.07394H11ZM13 3C13 2.44772 12.5523 2 12 2C11.4477 2 11 2.44772 11 3H13ZM11 21C11 21.5523 11.4477 22 12 22C12.5523 22 13 21.5523 13 21H11ZM13 20.9261C13 20.3738 12.5523 19.9261 12 19.9261C11.4477 19.9261 11 20.3738 11 20.9261H13ZM3.07394 13C3.62622 13 4.07394 12.5523 4.07394 12C4.07394 11.4477 3.62622 11 3.07394 11V13ZM3 11C2.44772 11 2 11.4477 2 12C2 12.5523 2.44772 13 3 13V11ZM21 13C21.5523 13 22 12.5523 22 12C22 11.4477 21.5523 11 21 11V13ZM20.9261 11C20.3738 11 19.9261 11.4477 19.9261 12C19.9261 12.5523 20.3738 13 20.9261 13V11ZM4.98121 6.39545C5.37173 6.78597 6.0049 6.78597 6.39542 6.39545C6.78594 6.00492 6.78594 5.37176 6.39542 4.98123L4.98121 6.39545ZM6.27851 4.86432C5.88799 4.4738 5.25482 4.4738 4.8643 4.86432C4.47377 5.25485 4.47377 5.88801 4.8643 6.27854L6.27851 4.86432ZM17.7215 19.1357C18.1121 19.5262 18.7453 19.5262 19.1357 19.1356C19.5262 18.745 19.5262 18.1119 19.1356 17.7214L17.7215 19.1357ZM19.0187 17.6046C18.6282 17.2141 17.995 17.2141 17.6045 17.6047C17.214 17.9953 17.2141 18.6284 17.6047 19.0189L19.0187 17.6046ZM19.0188 6.39545L19.1357 6.27854L17.7215 4.86432L17.6046 4.98123L19.0188 6.39545ZM6.27863 19.1357L6.39551 19.0188L4.98113 17.6047L4.86425 17.7216L6.27863 19.1357ZM13 3.07394V3H11V3.07394H13ZM13 21V20.9261H11V21H13ZM3.07394 11H3V13H3.07394V11ZM21 11H20.9261V13H21V11ZM6.39542 4.98123L6.27851 4.86432L4.8643 6.27854L4.98121 6.39545L6.39542 4.98123ZM19.1356 17.7214L19.0187 17.6046L17.6047 19.0189L17.7215 19.1357L19.1356 17.7214Z" fill="white"/>
</svg>
