<svg width="24" height="24" viewBox="0 0 24 24" fill="none" xmlns="http://www.w3.org/2000/svg">
<path d="M3 6.03259C2.44772 6.03259 2 6.48031 2 7.03259C2 7.58488 2.44772 8.03259 3 8.03259V6.03259ZM21 8.03259C21.5523 8.03259 22 7.58488 22 7.03259C22 6.48031 21.5523 6.03259 21 6.03259V8.03259ZM5 7.03259V6.03259H4V7.03259H5ZM19 7.03259H20V6.03259H19V7.03259ZM18.3418 16.8303L19.3026 17.1077L18.3418 16.8303ZM13.724 20.8553L13.8906 21.8414L13.724 20.8553ZM10.276 20.8553L10.4426 19.8693H10.4426L10.276 20.8553ZM10.1183 20.8287L9.95164 21.8147L9.95165 21.8147L10.1183 20.8287ZM5.65815 16.8303L4.69738 17.1076L5.65815 16.8303ZM13.8817 20.8287L13.7151 19.8427L13.8817 20.8287ZM7.84254 5.48939L8.75026 5.90896L7.84254 5.48939ZM8.81802 4.18112L8.15065 3.43639V3.43639L8.81802 4.18112ZM10.2779 3.30696L10.6259 4.24446L10.2779 3.30696ZM13.7221 3.30696L14.0701 2.36946V2.36946L13.7221 3.30696ZM16.1575 5.48939L17.0652 5.06982V5.06982L16.1575 5.48939ZM3 8.03259H21V6.03259H3V8.03259ZM13.7151 19.8427L13.5573 19.8693L13.8906 21.8414L14.0483 21.8147L13.7151 19.8427ZM10.4426 19.8693L10.2849 19.8427L9.95165 21.8147L10.1094 21.8414L10.4426 19.8693ZM18 7.03259V12.1758H20V7.03259H18ZM6 12.1759V7.03259H4V12.1759H6ZM18 12.1758C18 13.6571 17.7916 15.1308 17.3811 16.5529L19.3026 17.1077C19.7652 15.5051 20 13.8447 20 12.1758H18ZM13.5573 19.8693C12.5263 20.0436 11.4737 20.0436 10.4426 19.8693L10.1094 21.8414C11.361 22.0529 12.6389 22.0529 13.8906 21.8414L13.5573 19.8693ZM10.2849 19.8427C8.5425 19.5482 7.11537 18.2727 6.61892 16.5529L4.69738 17.1076C5.40498 19.5588 7.4444 21.391 9.95164 21.8147L10.2849 19.8427ZM6.61892 16.5529C6.2084 15.1308 6 13.6571 6 12.1759H4C4 13.8447 4.23478 15.5051 4.69738 17.1076L6.61892 16.5529ZM14.0483 21.8147C16.5556 21.391 18.595 19.5589 19.3026 17.1077L17.3811 16.5529C16.8846 18.2727 15.4575 19.5482 13.7151 19.8427L14.0483 21.8147ZM8.5 7.03259C8.5 6.65055 8.58379 6.26911 8.75026 5.90896L6.93482 5.06982C6.649 5.68818 6.5 6.3555 6.5 7.03259H8.5ZM8.75026 5.90896C8.91692 5.5484 9.1647 5.21322 9.48539 4.92584L8.15065 3.43639C7.63561 3.89794 7.22045 4.45186 6.93482 5.06982L8.75026 5.90896ZM9.48539 4.92584C9.80629 4.63827 10.193 4.40515 10.6259 4.24446L9.92993 2.36946C9.27089 2.61409 8.66547 2.97504 8.15065 3.43639L9.48539 4.92584ZM10.6259 4.24446C11.0589 4.08376 11.5261 4 12 4V2C11.2921 2 10.5889 2.12485 9.92993 2.36946L10.6259 4.24446ZM12 4C12.4739 4 12.9411 4.08376 13.3741 4.24446L14.0701 2.36946C13.4111 2.12485 12.7079 2 12 2V4ZM13.3741 4.24446C13.807 4.40515 14.1937 4.63827 14.5146 4.92584L15.8494 3.4364C15.3345 2.97504 14.7291 2.61409 14.0701 2.36946L13.3741 4.24446ZM14.5146 4.92584C14.8353 5.21323 15.0831 5.5484 15.2497 5.90896L17.0652 5.06982C16.7795 4.45186 16.3644 3.89794 15.8494 3.4364L14.5146 4.92584ZM15.2497 5.90896C15.4162 6.26911 15.5 6.65055 15.5 7.03259H17.5C17.5 6.3555 17.351 5.68818 17.0652 5.06982L15.2497 5.90896ZM5 8.03259H19V6.03259H5V8.03259Z" fill="white"/>
<path d="M10 12V16M14 12V16" stroke="white" stroke-width="2" stroke-linecap="round"/>
</svg>
