<svg width="30" height="30" viewBox="0 0 30 30" fill="none" xmlns="http://www.w3.org/2000/svg">
<path d="M25.5556 8.61074C23.4724 9.30513 20.6949 6.52757 21.3893 4.44439M21.2208 4.61288L16.7327 9.10091C14.7816 11.052 13.3974 13.4967 12.7282 16.1737L12.5114 17.0411C12.4438 17.3114 12.6886 17.5562 12.9589 17.4886L13.8263 17.2718C16.5033 16.6026 18.948 15.2184 20.8991 13.2673L25.3871 8.77923C25.9396 8.22673 26.25 7.47739 26.25 6.69605C26.25 5.06899 24.931 3.75 23.3039 3.75C22.5226 3.75 21.7733 4.06039 21.2208 4.61288Z" stroke="white" stroke-width="2"/>
<path d="M15 3.75C13.7208 3.75 12.4417 3.89703 11.188 4.1911C7.71626 5.00546 5.00547 7.71626 4.1911 11.188C3.60297 13.6953 3.60297 16.3047 4.1911 18.812C5.00547 22.2837 7.71626 24.9945 11.188 25.8089C13.6953 26.397 16.3047 26.397 18.812 25.8089C22.2837 24.9945 24.9945 22.2837 25.8089 18.812C26.103 17.5583 26.25 16.2791 26.25 15" stroke="white" stroke-width="2" stroke-linecap="round"/>
</svg>
