<svg width="24" height="24" viewBox="0 0 24 24" fill="none" xmlns="http://www.w3.org/2000/svg">
<path d="M3.5 7.5V15H5.5V7.5H3.5ZM10.5 22H14V20H10.5V22ZM21 15V7.5H19V15H21ZM14 22C17.866 22 21 18.866 21 15H19C19 17.7614 16.7614 20 14 20V22ZM3.5 15C3.5 18.866 6.63401 22 10.5 22V20C7.73858 20 5.5 17.7614 5.5 15H3.5Z" fill="#20293A"/>
<path d="M15 20.5V15C15 13.8954 14.1046 13 13 13H12C10.8954 13 10 13.8954 10 15V20.5" stroke="#20293A" stroke-width="2"/>
<path d="M22.3735 10.7794C22.8039 11.1254 23.4334 11.057 23.7794 10.6265C24.1254 10.1961 24.057 9.56662 23.6265 9.2206L22.3735 10.7794ZM15.6535 4.09451L16.28 3.31511L16.2456 3.28741L16.2088 3.26287L15.6535 4.09451ZM8.3465 4.09451L7.79119 3.26287L7.75443 3.28741L7.71998 3.31511L8.3465 4.09451ZM0.373476 9.2206C-0.0569764 9.56662 -0.125422 10.1961 0.220598 10.6265C0.566616 11.057 1.19607 11.1254 1.62652 10.7794L0.373476 9.2206ZM23.6265 9.2206L16.28 3.31511L15.027 4.87391L22.3735 10.7794L23.6265 9.2206ZM7.71998 3.31511L0.373476 9.2206L1.62652 10.7794L8.97302 4.87391L7.71998 3.31511ZM16.2088 3.26287C13.6871 1.57904 10.3129 1.57904 7.79119 3.26287L8.90181 4.92615C10.7512 3.69128 13.2488 3.69128 15.0982 4.92615L16.2088 3.26287Z" fill="#20293A"/>
</svg>
