<svg width="24" height="24" viewBox="0 0 24 24" fill="none" xmlns="http://www.w3.org/2000/svg">
<path d="M3.31573 13.7811L4.2893 13.5527L3.31573 13.7811ZM3.31573 8.324L4.2893 8.55237L3.31573 8.324ZM18.7893 8.324L19.7629 8.09563L18.7893 8.324ZM18.7893 13.781L19.7629 14.0094L18.7893 13.781ZM13.781 18.7893L13.5527 17.8157L13.781 18.7893ZM8.324 18.7893L8.09563 19.7629L8.324 18.7893ZM8.324 3.31573L8.09563 2.34215L8.324 3.31573ZM13.781 3.31573L14.0094 2.34215L13.781 3.31573ZM20.2929 21.7071C20.6834 22.0976 21.3166 22.0976 21.7071 21.7071C22.0976 21.3166 22.0976 20.6834 21.7071 20.2929L20.2929 21.7071ZM4.2893 13.5527C3.90357 11.9082 3.90357 10.1968 4.2893 8.55237L2.34215 8.09563C1.88595 10.0405 1.88595 12.0646 2.34215 14.0094L4.2893 13.5527ZM17.8157 8.55237C18.2015 10.1968 18.2015 11.9082 17.8157 13.5527L19.7629 14.0094C20.2191 12.0646 20.2191 10.0405 19.7629 8.09563L17.8157 8.55237ZM13.5527 17.8157C11.9082 18.2015 10.1968 18.2015 8.55237 17.8157L8.09563 19.7629C10.0405 20.2191 12.0646 20.2191 14.0094 19.7629L13.5527 17.8157ZM8.55237 4.2893C10.1968 3.90357 11.9082 3.90357 13.5527 4.2893L14.0094 2.34215C12.0646 1.88595 10.0405 1.88595 8.09563 2.34215L8.55237 4.2893ZM8.55237 17.8157C6.4371 17.3196 4.78548 15.668 4.2893 13.5527L2.34215 14.0094C3.0118 16.8642 5.24084 19.0933 8.09563 19.7629L8.55237 17.8157ZM14.0094 19.7629C16.8642 19.0933 19.0933 16.8642 19.7629 14.0094L17.8157 13.5527C17.3196 15.668 15.668 17.3196 13.5527 17.8157L14.0094 19.7629ZM13.5527 4.2893C15.668 4.78548 17.3196 6.4371 17.8157 8.55237L19.7629 8.09563C19.0933 5.24084 16.8642 3.0118 14.0094 2.34215L13.5527 4.2893ZM8.09563 2.34215C5.24084 3.0118 3.0118 5.24084 2.34215 8.09563L4.2893 8.55237C4.78548 6.4371 6.4371 4.78548 8.55237 4.2893L8.09563 2.34215ZM16.628 18.0422L20.2929 21.7071L21.7071 20.2929L18.0422 16.628L16.628 18.0422Z" fill="#20293A"/>
</svg>
